<svg width="14" height="7" viewBox="0 0 14 7" fill="none" xmlns="http://www.w3.org/2000/svg">
<path d="M10.2004 4.76837e-07C11.2138 4.76837e-07 12.0338 0.293334 12.6604 0.880001C13.3004 1.45333 13.6204 2.24667 13.6204 3.26C13.6204 3.92667 13.4671 4.50667 13.1604 5C12.8671 5.49333 12.4604 5.87333 11.9404 6.14C11.4204 6.40667 10.8538 6.54 10.2404 6.54C9.52043 6.54 8.88043 6.38 8.32043 6.06C7.77376 5.74 7.24043 5.30667 6.72043 4.76C6.33376 5.30667 5.85376 5.74 5.28043 6.06C4.72043 6.38 4.10043 6.54 3.42043 6.54C2.39376 6.54 1.5671 6.25333 0.94043 5.68C0.313763 5.09333 0.000429705 4.29333 0.000429705 3.28C0.000429705 2.61333 0.147096 2.03333 0.44043 1.54C0.747096 1.04667 1.16043 0.666668 1.68043 0.400001C2.20043 0.133334 2.7671 4.76837e-07 3.38043 4.76837e-07C4.11376 4.76837e-07 4.75376 0.166667 5.30043 0.500001C5.8471 0.820001 6.3671 1.27333 6.86043 1.86C7.23376 1.3 7.7071 0.853334 8.28043 0.520001C8.8671 0.173334 9.5071 4.76837e-07 10.2004 4.76837e-07ZM3.58043 4.6C3.95376 4.6 4.31376 4.49333 4.66043 4.28C5.02043 4.06667 5.33376 3.78 5.60043 3.42C5.1871 2.92667 4.8271 2.56 4.52043 2.32C4.2271 2.06667 3.91376 1.94 3.58043 1.94C3.19376 1.94 2.88043 2.06 2.64043 2.3C2.40043 2.52667 2.28043 2.85333 2.28043 3.28C2.28043 3.69333 2.40043 4.02 2.64043 4.26C2.88043 4.48667 3.19376 4.6 3.58043 4.6ZM10.0404 4.6C10.4271 4.6 10.7404 4.48667 10.9804 4.26C11.2204 4.02 11.3404 3.68667 11.3404 3.26C11.3404 2.83333 11.2204 2.50667 10.9804 2.28C10.7538 2.05333 10.4404 1.94 10.0404 1.94C9.65376 1.94 9.2671 2.06 8.88043 2.3C8.5071 2.52667 8.19376 2.84 7.94043 3.24C8.30043 3.68 8.64043 4.02 8.96043 4.26C9.28043 4.48667 9.64043 4.6 10.0404 4.6Z" fill="#0F1729"/>
</svg>
